HIERARCHY
ROOT mixamorig:Hips
{
	OFFSET -0.000008 104.274872 1.554316
	CHANNELS 6 Xposition Yposition Zposition Xrotation Yrotation Zrotation
	JOINT mixamorig:Spine
	{
		OFFSET -0.000005 10.181595 0.131519
		CHANNELS 6 Xposition Yposition Zposition Xrotation Yrotation Zrotation
		JOINT mixamorig:Spine1
		{
			OFFSET -0.000000 9.893959 -1.470707
			CHANNELS 6 Xposition Yposition Zposition Xrotation Yrotation Zrotation
			JOINT mixamorig:Spine2
			{
				OFFSET -0.000000 9.220757 -1.370641
				CHANNELS 6 Xposition Yposition Zposition Xrotation Yrotation Zrotation
				JOINT mixamorig:Neck
				{
					OFFSET 0.000001 16.740417 -2.049036
					CHANNELS 6 Xposition Yposition Zposition Xrotation Yrotation Zrotation
					JOINT mixamorig:Head
					{
						OFFSET 0.000000 9.617874 1.685006
						CHANNELS 6 Xposition Yposition Zposition Xrotation Yrotation Zrotation
						JOINT mixamorig:HeadTop_End
						{
							OFFSET 0.000002 22.037354 7.501101
							CHANNELS 6 Xposition Yposition Zposition Xrotation Yrotation Zrotation
							End Site
							{
								OFFSET 0.000168 2310.654297 -282.823242
							}
						}
					}
				}
				JOINT mixamorig:RightShoulder
				{
					OFFSET -4.569970 11.014908 -2.160885
					CHANNELS 6 Xposition Yposition Zposition Xrotation Yrotation Zrotation
					JOINT mixamorig:RightArm
					{
						OFFSET -10.592851 -0.524811 -2.232101
						CHANNELS 6 Xposition Yposition Zposition Xrotation Yrotation Zrotation
						JOINT mixamorig:RightForeArm
						{
							OFFSET -27.841511 0.000031 -0.000004
							CHANNELS 6 Xposition Yposition Zposition Xrotation Yrotation Zrotation
							JOINT mixamorig:RightHand
							{
								OFFSET -28.328831 -0.000015 0.000015
								CHANNELS 6 Xposition Yposition Zposition Xrotation Yrotation Zrotation
								JOINT mixamorig:RightHandThumb1
								{
									OFFSET -2.464806 -1.573990 2.681852
									CHANNELS 6 Xposition Yposition Zposition Xrotation Yrotation Zrotation
									JOINT mixamorig:RightHandThumb2
									{
										OFFSET -3.215179 -1.872803 1.924282
										CHANNELS 6 Xposition Yposition Zposition Xrotation Yrotation Zrotation
										JOINT mixamorig:RightHandThumb3
										{
											OFFSET -2.654831 -1.527969 1.512609
											CHANNELS 6 Xposition Yposition Zposition Xrotation Yrotation Zrotation
											JOINT mixamorig:RightHandThumb4
											{
												OFFSET -2.018814 -1.152008 1.108052
												CHANNELS 6 Xposition Yposition Zposition Xrotation Yrotation Zrotation
												End Site
												{
													OFFSET -188.809540 -114.533607 132.431396
												}
											}
										}
									}
								}
								JOINT mixamorig:RightHandIndex1
								{
									OFFSET -9.108284 -0.517868 2.259835
									CHANNELS 6 Xposition Yposition Zposition Xrotation Yrotation Zrotation
									JOINT mixamorig:RightHandIndex2
									{
										OFFSET -3.699989 0.000000 0.001215
										CHANNELS 6 Xposition Yposition Zposition Xrotation Yrotation Zrotation
										JOINT mixamorig:RightHandIndex3
										{
											OFFSET -2.850006 0.000031 -0.000522
											CHANNELS 6 Xposition Yposition Zposition Xrotation Yrotation Zrotation
											JOINT mixamorig:RightHandIndex4
											{
												OFFSET -2.772186 -0.000015 -0.000020
												CHANNELS 6 Xposition Yposition Zposition Xrotation Yrotation Zrotation
												End Site
												{
													OFFSET -277.218445 0.000000 -0.050231
												}
											}
										}
									}
								}
								JOINT mixamorig:RightHandMiddle1
								{
									OFFSET -9.532516 -0.000031 -0.000023
									CHANNELS 6 Xposition Yposition Zposition Xrotation Yrotation Zrotation
									JOINT mixamorig:RightHandMiddle2
									{
										OFFSET -3.700005 -0.000015 0.003713
										CHANNELS 6 Xposition Yposition Zposition Xrotation Yrotation Zrotation
										JOINT mixamorig:RightHandMiddle3
										{
											OFFSET -2.949974 0.000015 -0.002054
											CHANNELS 6 Xposition Yposition Zposition Xrotation Yrotation Zrotation
											JOINT mixamorig:RightHandMiddle4
											{
												OFFSET -2.946640 0.000000 -0.000156
												CHANNELS 6 Xposition Yposition Zposition Xrotation Yrotation Zrotation
												End Site
												{
													OFFSET -294.664337 0.000000 -0.113670
												}
											}
										}
									}
								}
								JOINT mixamorig:RightHandRing1
								{
									OFFSET -9.103600 -0.043076 -1.865134
									CHANNELS 6 Xposition Yposition Zposition Xrotation Yrotation Zrotation
									JOINT mixamorig:RightHandRing2
									{
										OFFSET -3.379288 0.000000 -0.001055
										CHANNELS 6 Xposition Yposition Zposition Xrotation Yrotation Zrotation
										JOINT mixamorig:RightHandRing3
										{
											OFFSET -2.889687 -0.000015 0.000379
											CHANNELS 6 Xposition Yposition Zposition Xrotation Yrotation Zrotation
											JOINT mixamorig:RightHandRing4
											{
												OFFSET -2.638809 -0.000015 0.000941
												CHANNELS 6 Xposition Yposition Zposition Xrotation Yrotation Zrotation
												End Site
												{
													OFFSET -263.880371 0.000000 0.516020
												}
											}
										}
									}
								}
								JOINT mixamorig:RightHandPinky1
								{
									OFFSET -8.076683 -0.486710 -3.806280
									CHANNELS 6 Xposition Yposition Zposition Xrotation Yrotation Zrotation
									JOINT mixamorig:RightHandPinky2
									{
										OFFSET -3.600014 -0.000015 -0.003747
										CHANNELS 6 Xposition Yposition Zposition Xrotation Yrotation Zrotation
										JOINT mixamorig:RightHandPinky3
										{
											OFFSET -2.099983 0.000000 -0.005739
											CHANNELS 6 Xposition Yposition Zposition Xrotation Yrotation Zrotation
											JOINT mixamorig:RightHandPinky4
											{
												OFFSET -2.115768 -0.000031 -0.003680
												CHANNELS 6 Xposition Yposition Zposition Xrotation Yrotation Zrotation
												End Site
												{
													OFFSET -211.577087 0.000000 -0.350686
												}
											}
										}
									}
								}
							}
						}
					}
				}
				JOINT mixamorig:LeftShoulder
				{
					OFFSET 4.570447 11.014725 -2.160855
					CHANNELS 6 Xposition Yposition Zposition Xrotation Yrotation Zrotation
					JOINT mixamorig:LeftArm
					{
						OFFSET 10.592371 -0.524597 -2.232119
						CHANNELS 6 Xposition Yposition Zposition Xrotation Yrotation Zrotation
						JOINT mixamorig:LeftForeArm
						{
							OFFSET 27.841532 -0.000031 0.000026
							CHANNELS 6 Xposition Yposition Zposition Xrotation Yrotation Zrotation
							JOINT mixamorig:LeftHand
							{
								OFFSET 28.328846 -0.000061 0.000022
								CHANNELS 6 Xposition Yposition Zposition Xrotation Yrotation Zrotation
								JOINT mixamorig:LeftHandThumb1
								{
									OFFSET 2.466141 -1.576172 2.681732
									CHANNELS 6 Xposition Yposition Zposition Xrotation Yrotation Zrotation
									JOINT mixamorig:LeftHandThumb2
									{
										OFFSET 3.217812 -1.872070 1.916482
										CHANNELS 6 Xposition Yposition Zposition Xrotation Yrotation Zrotation
										JOINT mixamorig:LeftHandThumb3
										{
											OFFSET 2.656029 -1.528778 1.514513
											CHANNELS 6 Xposition Yposition Zposition Xrotation Yrotation Zrotation
											JOINT mixamorig:LeftHandThumb4
											{
												OFFSET 2.020889 -1.154053 1.115139
												CHANNELS 6 Xposition Yposition Zposition Xrotation Yrotation Zrotation
												End Site
												{
													OFFSET 190.885437 -115.081749 130.048782
												}
											}
										}
									}
								}
								JOINT mixamorig:LeftHandIndex1
								{
									OFFSET 9.109314 -0.518021 2.259871
									CHANNELS 6 Xposition Yposition Zposition Xrotation Yrotation Zrotation
									JOINT mixamorig:LeftHandIndex2
									{
										OFFSET 3.699989 0.000000 -0.000322
										CHANNELS 6 Xposition Yposition Zposition Xrotation Yrotation Zrotation
										JOINT mixamorig:LeftHandIndex3
										{
											OFFSET 2.850006 0.000000 0.000352
											CHANNELS 6 Xposition Yposition Zposition Xrotation Yrotation Zrotation
											JOINT mixamorig:LeftHandIndex4
											{
												OFFSET 2.774864 -0.000031 -0.000027
												CHANNELS 6 Xposition Yposition Zposition Xrotation Yrotation Zrotation
												End Site
												{
													OFFSET 277.486267 0.000000 -0.009857
												}
											}
										}
									}
								}
								JOINT mixamorig:LeftHandMiddle1
								{
									OFFSET 9.533394 0.000061 0.000044
									CHANNELS 6 Xposition Yposition Zposition Xrotation Yrotation Zrotation
									JOINT mixamorig:LeftHandMiddle2
									{
										OFFSET 3.699989 -0.000015 -0.000231
										CHANNELS 6 Xposition Yposition Zposition Xrotation Yrotation Zrotation
										JOINT mixamorig:LeftHandMiddle3
										{
											OFFSET 2.949997 -0.000015 -0.000059
											CHANNELS 6 Xposition Yposition Zposition Xrotation Yrotation Zrotation
											JOINT mixamorig:LeftHandMiddle4
											{
												OFFSET 2.952896 0.000031 0.000063
												CHANNELS 6 Xposition Yposition Zposition Xrotation Yrotation Zrotation
												End Site
												{
													OFFSET 295.289337 0.000000 0.022810
												}
											}
										}
									}
								}
								JOINT mixamorig:LeftHandRing1
								{
									OFFSET 9.104523 -0.042999 -1.865074
									CHANNELS 6 Xposition Yposition Zposition Xrotation Yrotation Zrotation
									JOINT mixamorig:LeftHandRing2
									{
										OFFSET 3.150009 -0.000031 0.000043
										CHANNELS 6 Xposition Yposition Zposition Xrotation Yrotation Zrotation
										JOINT mixamorig:LeftHandRing3
										{
											OFFSET 2.949982 -0.000015 0.000040
											CHANNELS 6 Xposition Yposition Zposition Xrotation Yrotation Zrotation
											JOINT mixamorig:LeftHandRing4
											{
												OFFSET 2.644348 0.000000 0.000057
												CHANNELS 6 Xposition Yposition Zposition Xrotation Yrotation Zrotation
												End Site
												{
													OFFSET 264.434631 0.000000 0.012105
												}
											}
										}
									}
								}
								JOINT mixamorig:LeftHandPinky1
								{
									OFFSET 8.077789 -0.486847 -3.806259
									CHANNELS 6 Xposition Yposition Zposition Xrotation Yrotation Zrotation
									JOINT mixamorig:LeftHandPinky2
									{
										OFFSET 3.599953 0.000031 0.014727
										CHANNELS 6 Xposition Yposition Zposition Xrotation Yrotation Zrotation
										JOINT mixamorig:LeftHandPinky3
										{
											OFFSET 2.100021 0.000015 0.007705
											CHANNELS 6 Xposition Yposition Zposition Xrotation Yrotation Zrotation
											JOINT mixamorig:LeftHandPinky4
											{
												OFFSET 2.125504 0.000031 0.007517
												CHANNELS 6 Xposition Yposition Zposition Xrotation Yrotation Zrotation
												End Site
												{
													OFFSET 212.550781 0.000000 0.625752
												}
											}
										}
									}
								}
							}
						}
					}
				}
			}
		}
	}
	JOINT mixamorig:RightUpLeg
	{
		OFFSET -8.207787 -6.751648 -1.599560
		CHANNELS 6 Xposition Yposition Zposition Xrotation Yrotation Zrotation
		JOINT mixamorig:RightLeg
		{
			OFFSET -0.000002 -44.370117 0.345942
			CHANNELS 6 Xposition Yposition Zposition Xrotation Yrotation Zrotation
			JOINT mixamorig:RightFoot
			{
				OFFSET 0.000003 -44.423679 -3.043532
				CHANNELS 6 Xposition Yposition Zposition Xrotation Yrotation Zrotation
				JOINT mixamorig:RightToeBase
				{
					OFFSET -0.000002 -8.728671 10.710558
					CHANNELS 6 Xposition Yposition Zposition Xrotation Yrotation Zrotation
					JOINT mixamorig:RightToe_End
					{
						OFFSET -0.000001 -0.000679 9.278119
						CHANNELS 6 Xposition Yposition Zposition Xrotation Yrotation Zrotation
						End Site
						{
							OFFSET 0.000000 -0.067690 927.812134
						}
					}
				}
			}
		}
	}
	JOINT mixamorig:LeftUpLeg
	{
		OFFSET 8.207793 -6.751686 -1.599556
		CHANNELS 6 Xposition Yposition Zposition Xrotation Yrotation Zrotation
		JOINT mixamorig:LeftLeg
		{
			OFFSET -0.000004 -44.370014 0.346954
			CHANNELS 6 Xposition Yposition Zposition Xrotation Yrotation Zrotation
			JOINT mixamorig:LeftFoot
			{
				OFFSET -0.000001 -44.423672 -3.044401
				CHANNELS 6 Xposition Yposition Zposition Xrotation Yrotation Zrotation
				JOINT mixamorig:LeftToeBase
				{
					OFFSET -0.000002 -8.728669 10.710558
					CHANNELS 6 Xposition Yposition Zposition Xrotation Yrotation Zrotation
					JOINT mixamorig:LeftToe_End
					{
						OFFSET -0.000003 -0.000679 9.278133
						CHANNELS 6 Xposition Yposition Zposition Xrotation Yrotation Zrotation
						End Site
						{
							OFFSET 0.000000 -0.068021 927.813477
						}
					}
				}
			}
		}
	}
}
MOTION
Frames: 3
Frame Time: 0.033333
0.000006 104.270477 1.554256 0.000010 0.000003 -0.000113 -0.000005 10.181587 0.131522 0.000001 -0.000003 0.000084 -0.000000 9.893967 -1.470711 0.000001 0.000000 -0.000000 -0.000000 9.220802 -1.370642 0.000000 -0.000000 -0.000000 0.000001 16.740433 -2.049030 0.000000 -0.000000 -0.000000 0.000000 9.617859 1.685014 0.000000 0.000000 0.000000 0.000002 22.037384 7.501101 0.000000 -0.000000 0.000000 -4.569968 11.014880 -2.160881 0.000008 0.000001 -0.000038 -10.592865 -0.524669 -2.232033 72.629766 5.456347 -4.011671 -27.841536 0.000022 0.000547 -59.393167 119.982737 89.277184 -28.328842 0.000022 0.000022 -0.000321 -0.000045 0.000006 -2.464447 -1.573928 2.682385 -28.782444 -152.230191 28.411237 -3.215241 -1.872511 1.924618 150.542642 34.671140 30.094107 -2.654953 -1.527901 1.513098 152.002950 25.810923 -37.900330 -2.018837 -1.151998 1.108074 -0.000002 -0.000000 0.000000 -9.108408 -0.517559 2.260160 105.259806 18.507636 -24.146879 -3.700083 0.000310 0.001542 102.915918 15.698536 -19.605595 -2.850080 0.000342 -0.000235 102.861884 11.542974 -14.446601 -2.772163 0.000001 -0.000019 0.000000 0.000000 -0.000000 -9.532601 0.000268 0.000316 105.044389 17.705887 -23.153428 -3.700079 0.000318 0.004035 104.322909 13.700478 -17.459610 -2.950058 0.000352 -0.001772 104.975431 11.101910 -14.421330 -2.946638 0.000013 -0.000154 0.000000 0.000001 -0.000001 -9.103717 -0.042748 -1.864813 104.556802 18.475851 -23.691590 -3.379336 0.000322 -0.000768 105.440478 10.306398 -13.535606 -2.889743 0.000349 0.000704 109.107218 6.039551 -8.539639 -2.638798 0.000003 0.000943 0.000000 -0.000001 0.000001 -8.076778 -0.486378 -3.805959 97.779383 20.493928 -23.230426 -3.600041 0.000281 -0.003439 103.668044 10.176184 -12.465321 -2.100015 0.000326 -0.005424 106.819439 4.941778 -6.360177 -2.115779 -0.000035 -0.003681 -0.000002 0.000003 -0.000005 4.570446 11.014691 -2.160851 -0.000018 0.000010 -0.000021 10.592360 -0.524540 -2.232268 68.719763 11.235227 -7.694433 27.841831 0.000118 -0.000201 102.968981 -63.342935 75.562260 28.328817 -0.000028 0.000020 0.000022 -0.000091 -0.000000 2.466055 -1.576161 2.681909 -26.378059 152.868991 -32.935507 3.217785 -1.871735 1.916363 156.201085 -31.525660 -2.212528 2.656093 -1.528626 1.514436 141.338443 -27.692351 41.503433 2.020883 -1.154068 1.115147 0.000002 0.000005 0.000006 9.109375 -0.517835 2.259751 88.768369 -15.312324 14.978376 3.700045 0.000148 -0.000467 86.216494 -14.258927 13.371710 2.850054 0.000187 0.000198 84.314676 -12.401563 11.234953 2.774907 -0.000018 -0.000027 0.000001 -0.000000 -0.000002 9.533467 0.000247 -0.000089 89.447406 -13.943252 13.802137 3.700054 0.000182 -0.000378 89.842416 -13.422697 13.383463 2.950081 0.000185 -0.000193 91.887833 -16.526882 17.075727 2.952867 -0.000001 0.000062 0.000001 -0.000000 0.000003 9.104579 -0.042812 -1.865213 88.389458 -13.237047 12.875063 3.150069 0.000211 -0.000100 93.341222 -12.379495 13.118933 2.950031 0.000212 -0.000080 96.693246 -13.729708 15.417786 2.644310 0.000032 0.000060 0.000003 0.000002 0.000003 8.077845 -0.486710 -3.806413 76.926269 -15.519052 12.822499 3.600008 0.000186 0.014572 79.110611 -12.866931 11.063065 2.100036 0.000205 0.007561 85.446964 -11.401808 10.977738 2.125483 0.000000 0.007518 0.000001 0.000000 0.000002 -8.207786 -6.751667 -1.599560 -0.077001 -0.000003 0.000080 -0.000002 -44.370110 0.345938 0.153719 -0.000000 -0.000000 0.000000 -44.423679 -3.043532 -0.076700 0.000000 -0.000002 -0.000006 -8.728667 10.710559 -0.000009 -0.000000 -0.000000 -0.000001 -0.000679 9.278123 0.000000 -0.000000 -0.000000 8.207792 -6.751710 -1.599556 -0.074518 -0.000003 0.000081 -0.000002 -44.370014 0.346960 0.148822 0.000002 0.000000 -0.000001 -44.423664 -3.044403 -0.074314 0.000000 -0.000002 -0.000004 -8.728671 10.710558 0.000007 -0.000000 -0.000000 0.000000 -0.000680 9.278137 -0.000000 0.000000 -0.000001 
0.000006 104.270477 1.554256 0.000010 0.000003 -0.000113 -0.000005 10.181587 0.131522 0.000001 -0.000003 0.000084 -0.000000 9.893967 -1.470711 0.000001 0.000000 -0.000000 -0.000000 9.220802 -1.370642 0.000000 -0.000000 -0.000000 0.000001 16.740433 -2.049030 0.000000 -0.000000 -0.000000 0.000000 9.617859 1.685014 0.000000 0.000000 0.000000 0.000002 22.037384 7.501101 0.000000 -0.000000 0.000000 -4.569968 11.014880 -2.160881 0.000008 0.000001 -0.000038 -10.592875 -0.524688 -2.232004 73.297909 11.006659 -8.200126 -27.841530 0.000017 0.000516 -58.757406 118.727853 87.097473 -28.328842 0.000005 0.000022 -0.000317 -0.000046 0.000006 -2.464423 -1.573865 2.682351 -38.394812 -154.101608 9.998014 -3.215239 -1.872524 1.924628 149.371033 34.439487 31.252589 -2.654965 -1.527876 1.513075 150.283819 26.698941 -33.591584 -2.018822 -1.152014 1.108063 -0.000003 -0.000003 0.000000 -9.108397 -0.517580 2.260159 107.883876 17.303664 -23.672491 -3.700074 0.000295 0.001560 104.503527 14.434712 -18.547927 -2.850094 0.000356 -0.000218 103.736264 10.940828 -13.909966 -2.772172 -0.000018 -0.000020 0.000000 0.000002 -0.000003 -9.532632 0.000248 0.000293 105.150066 18.102049 -23.706053 -3.700067 0.000324 0.004040 105.545021 13.045306 -16.989971 -2.950062 0.000331 -0.001754 107.540406 11.257403 -15.312514 -2.946621 -0.000000 -0.000153 0.000000 0.000000 0.000001 -9.103714 -0.042778 -1.864812 103.697079 19.544276 -24.674960 -3.379339 0.000317 -0.000753 106.227330 10.350644 -13.786997 -2.889767 0.000362 0.000719 111.357779 6.533470 -9.624889 -2.638837 -0.000015 0.000933 0.000000 -0.000000 -0.000001 -8.076778 -0.486399 -3.805961 98.629079 20.959771 -24.106458 -3.600056 0.000280 -0.003443 102.608136 9.969010 -11.976395 -2.100017 0.000312 -0.005440 104.797676 4.930457 -6.117150 -2.115762 -0.000069 -0.003679 0.000002 -0.000000 -0.000005 4.570446 11.014691 -2.160851 -0.000018 0.000010 -0.000021 10.592360 -0.524559 -2.232268 69.637740 15.372738 -10.724963 27.841835 0.000123 -0.000218 103.393341 -65.043529 77.824617 28.328819 -0.000044 0.000016 0.000020 -0.000088 -0.000001 2.466196 -1.576123 2.681868 -4.903859 158.625775 -74.104663 3.217834 -1.871742 1.916389 164.088724 -27.828617 17.154128 2.656116 -1.528647 1.514484 142.754068 -26.670849 52.018407 2.020887 -1.154082 1.115139 0.000000 0.000006 0.000004 9.109398 -0.517848 2.259741 91.539828 -19.247033 19.748111 3.700046 0.000165 -0.000473 88.878697 -12.748984 12.520405 2.850044 0.000213 0.000206 87.384047 -10.109002 9.658655 2.774879 -0.000013 -0.000032 0.000000 -0.000005 0.000000 9.533476 0.000218 -0.000068 90.458219 -17.882240 18.014402 3.700068 0.000203 -0.000378 92.186291 -10.778219 11.192196 2.950048 0.000209 -0.000211 93.368003 -10.736852 11.386196 2.952866 -0.000033 0.000067 -0.000001 0.000001 -0.000000 9.104611 -0.042839 -1.865229 90.041148 -17.217399 17.231555 3.150052 0.000225 -0.000090 94.265490 -11.885843 12.799949 2.950015 0.000210 -0.000075 95.984116 -10.401314 11.543161 2.644331 0.000015 0.000069 -0.000000 0.000000 -0.000005 8.077849 -0.486716 -3.806384 81.653914 -19.039052 17.010550 3.599984 0.000190 0.014562 82.836077 -16.080938 14.671315 2.100034 0.000190 0.007567 85.088734 -11.763607 11.243989 2.125511 -0.000013 0.007511 -0.000002 0.000002 0.000000 -8.207786 -6.751667 -1.599560 -0.077001 -0.000003 0.000080 -0.000002 -44.370110 0.345938 0.153719 -0.000000 -0.000000 0.000000 -44.423679 -3.043532 -0.076700 0.000000 -0.000002 -0.000006 -8.728667 10.710559 -0.000009 -0.000000 -0.000000 -0.000001 -0.000679 9.278123 0.000000 -0.000000 -0.000000 8.207792 -6.751710 -1.599556 -0.074518 -0.000003 0.000081 -0.000002 -44.370014 0.346960 0.148822 0.000002 0.000000 -0.000001 -44.423664 -3.044403 -0.074314 0.000000 -0.000002 -0.000004 -8.728671 10.710558 0.000007 -0.000000 -0.000000 0.000000 -0.000680 9.278137 -0.000000 0.000000 -0.000001 
0.000006 104.270477 1.554256 0.000010 0.000003 -0.000113 -0.000005 10.181587 0.131522 0.000001 -0.000003 0.000084 -0.000000 9.893967 -1.470711 0.000001 0.000000 -0.000000 -0.000000 9.220802 -1.370642 0.000000 -0.000000 -0.000000 0.000001 16.740433 -2.049030 0.000000 -0.000000 -0.000000 0.000000 9.617859 1.685014 0.000000 0.000000 0.000000 0.000002 22.037384 7.501101 0.000000 -0.000000 0.000000 -4.569968 11.014880 -2.160881 0.000008 0.000001 -0.000038 -10.592875 -0.524690 -2.232001 73.416467 11.878625 -8.870817 -27.841532 0.000022 0.000531 -57.417125 117.562036 84.204942 -28.328819 0.000021 0.000025 -0.000317 -0.000046 0.000007 -2.464421 -1.573905 2.682371 -34.577419 -151.910729 16.911065 -3.215243 -1.872514 1.924614 149.972185 34.487066 30.126687 -2.654953 -1.527882 1.513088 150.074419 26.715744 -33.751230 -2.018845 -1.152003 1.108068 -0.000001 -0.000000 0.000000 -9.108392 -0.517585 2.260166 108.896964 17.604451 -24.516879 -3.700077 0.000303 0.001550 105.021344 13.905051 -18.035914 -2.850081 0.000356 -0.000219 103.607269 10.230054 -12.979449 -2.772177 -0.000003 -0.000017 0.000000 -0.000000 -0.000001 -9.532619 0.000234 0.000295 106.184047 18.160392 -24.218080 -3.700064 0.000331 0.004030 106.360976 12.547799 -16.582108 -2.950080 0.000346 -0.001726 108.257768 10.758341 -14.828501 -2.946611 0.000002 -0.000156 0.000000 0.000000 0.000004 -9.103703 -0.042790 -1.864794 104.994194 19.785842 -25.548198 -3.379325 0.000322 -0.000756 106.855099 10.082757 -13.585112 -2.889750 0.000340 0.000698 112.094893 6.125769 -9.154809 -2.638806 -0.000033 0.000943 0.000000 0.000000 0.000002 -8.076767 -0.486411 -3.805951 99.950345 20.977589 -24.679873 -3.600052 0.000286 -0.003449 103.530389 9.774895 -11.930017 -2.100018 0.000319 -0.005411 106.028244 4.596351 -5.812974 -2.115762 -0.000043 -0.003677 0.000001 0.000000 -0.000006 4.570446 11.014691 -2.160851 -0.000018 0.000010 -0.000021 10.592356 -0.524548 -2.232274 69.617605 13.076506 -9.111746 27.841843 0.000093 -0.000205 103.739802 -66.210706 79.430210 28.328848 -0.000044 0.000021 0.000022 -0.000089 -0.000000 2.466239 -1.576057 2.681834 10.400360 165.494240 -100.693866 3.217855 -1.871849 1.916398 165.531014 -23.702493 32.617490 2.656118 -1.528648 1.514475 141.176499 -27.180161 52.040301 2.020891 -1.154085 1.115137 -0.000000 0.000004 0.000002 9.109386 -0.517839 2.259736 95.107133 -20.000343 21.810628 3.700041 0.000194 -0.000466 92.312602 -11.936442 12.441829 2.850025 0.000235 0.000195 90.449128 -9.074521 9.144374 2.774875 -0.000032 -0.000023 -0.000000 -0.000001 0.000002 9.533470 0.000211 -0.000095 93.457349 -18.883851 20.026400 3.700063 0.000220 -0.000381 94.702868 -9.708425 10.532578 2.950055 0.000207 -0.000215 95.327885 -9.439535 10.359126 2.952862 -0.000014 0.000051 0.000002 0.000001 -0.000002 9.104587 -0.042825 -1.865212 93.687786 -17.912994 19.085560 3.150046 0.000232 -0.000092 97.723164 -12.020668 13.747386 2.950030 0.000210 -0.000092 98.568816 -10.168792 11.806971 2.644325 0.000029 0.000054 -0.000003 0.000002 -0.000000 8.077847 -0.486700 -3.806385 85.856502 -19.687834 18.900168 3.600030 0.000194 0.014586 85.344279 -17.246976 16.407223 2.100036 0.000190 0.007555 86.431953 -12.414069 12.124916 2.125499 -0.000019 0.007514 0.000002 0.000001 0.000002 -8.207786 -6.751667 -1.599560 -0.077001 -0.000003 0.000080 -0.000002 -44.370110 0.345938 0.153719 -0.000000 -0.000000 0.000000 -44.423679 -3.043532 -0.076700 0.000000 -0.000002 -0.000006 -8.728667 10.710559 -0.000009 -0.000000 -0.000000 -0.000001 -0.000679 9.278123 0.000000 -0.000000 -0.000000 8.207792 -6.751710 -1.599556 -0.074518 -0.000003 0.000081 -0.000002 -44.370014 0.346960 0.148822 0.000002 0.000000 -0.000001 -44.423664 -3.044403 -0.074314 0.000000 -0.000002 -0.000004 -8.728671 10.710558 0.000007 -0.000000 -0.000000 0.000000 -0.000680 9.278137 -0.000000 0.000000 -0.000001 
